<?xml version="1.0" standalone="no"?>
<!DOCTYPE svg PUBLIC "-//W3C//DTD SVG 20010904//EN"
 "http://www.w3.org/TR/2001/REC-SVG-20010904/DTD/svg10.dtd">
<svg version="1.0" xmlns="http://www.w3.org/2000/svg"
 width="269.000000pt" height="269.000000pt" viewBox="0 0 269.000000 269.000000"
 preserveAspectRatio="xMidYMid meet">
<metadata>
Created by potrace 1.14, written by Peter Selinger 2001-2017
</metadata>
<g transform="translate(0.000000,269.000000) scale(0.100000,-0.100000)"
fill="#000000" stroke="none">
<path d="M1710 2193 c-40 -15 -212 -118 -217 -130 -3 -7 -11 -13 -19 -13 -8 0
-31 -11 -52 -24 l-38 -24 -27 24 c-24 20 -39 24 -100 24 -64 0 -81 -4 -145
-37 -73 -38 -176 -111 -267 -189 l-48 -42 98 -278 c55 -154 106 -299 115 -323
27 -77 37 -76 141 24 92 86 221 180 264 191 12 3 39 4 61 2 37 -3 40 -5 56
-53 20 -63 38 -66 98 -20 89 69 266 183 303 194 46 15 47 32 11 134 -14 39
-39 110 -54 157 -16 47 -43 123 -60 170 -17 47 -38 105 -47 130 -17 50 -40 90
-51 89 -4 0 -14 -3 -22 -6z m45 -185 c21 -62 42 -114 47 -116 4 -2 8 -12 8
-22 0 -10 18 -67 40 -127 22 -60 42 -123 46 -140 6 -29 3 -33 -37 -54 -51 -25
-246 -156 -254 -170 -10 -14 -25 -11 -25 7 0 8 -15 28 -32 45 -77 69 -202 22
-409 -153 -37 -32 -70 -58 -72 -58 -6 0 -11 12 -67 170 -26 74 -66 187 -89
250 -23 63 -39 120 -37 127 9 21 190 155 258 189 114 57 171 56 203 -6 17 -32
45 -39 65 -15 16 19 129 92 200 129 30 16 64 35 75 43 11 7 25 13 31 13 6 0
28 -51 49 -112z"/>
<path d="M643 1694 c-8 -20 -20 16 212 -639 31 -88 65 -185 75 -215 129 -364
138 -383 169 -346 9 11 4 38 -29 132 -22 66 -44 127 -50 136 -5 10 -10 22 -10
28 0 6 -31 97 -69 203 -38 105 -109 305 -157 442 -48 138 -91 256 -97 263 -13
17 -36 15 -44 -4z"/>
</g>
</svg>
