<?xml version="1.0" standalone="no"?>
<!DOCTYPE svg PUBLIC "-//W3C//DTD SVG 20010904//EN"
 "http://www.w3.org/TR/2001/REC-SVG-20010904/DTD/svg10.dtd">
<svg version="1.0" xmlns="http://www.w3.org/2000/svg"
 width="233.000000pt" height="233.000000pt" viewBox="0 0 233.000000 233.000000"
 preserveAspectRatio="xMidYMid meet">
<metadata>
Created by potrace 1.14, written by Peter Selinger 2001-2017
</metadata>
<g transform="translate(0.000000,233.000000) scale(0.100000,-0.100000)"
fill="#000000" stroke="none">
<path d="M867 1523 c-1 -1 -34 -2 -72 -4 -159 -5 -243 -103 -205 -241 14 -50
88 -114 143 -124 23 -4 89 -8 147 -9 102 -1 106 0 130 26 33 35 50 57 50 64 0
3 -65 5 -144 5 -78 0 -157 5 -174 11 -57 20 -68 103 -19 145 33 28 18 26 225
28 l162 1 0 -142 0 -142 53 3 c28 2 54 4 57 5 3 0 5 62 5 136 0 74 2 136 5
136 3 1 91 3 195 4 105 2 195 3 201 4 6 1 23 19 38 41 20 31 23 42 13 46 -12
4 -806 12 -810 7z"/>
<path d="M1282 1258 l3 -113 48 -1 c27 0 51 4 53 10 2 6 6 38 7 71 l3 60 108
1 c106 1 108 2 132 30 43 53 41 54 -166 54 l-191 0 3 -112z"/>
<path d="M1093 1035 c-21 -15 -31 -89 -13 -100 5 -3 11 0 11 7 2 15 5 47 7 66
3 17 141 17 144 0 0 -7 2 -17 3 -23 2 -5 3 -18 4 -27 0 -10 6 -18 12 -18 14 0
6 77 -10 93 -16 16 -136 18 -158 2z"/>
<path d="M1390 991 c0 -66 5 -75 20 -37 8 23 14 25 59 22 30 -2 61 -12 80 -25
18 -13 32 -17 36 -11 3 6 -7 18 -24 27 l-30 18 31 26 c39 32 22 48 -17 17 -18
-14 -47 -23 -81 -26 -49 -4 -54 -3 -54 16 0 12 -4 24 -10 27 -6 4 -10 -17 -10
-54z"/>
<path d="M770 990 c0 -27 5 -50 10 -50 6 0 10 9 10 21 0 19 4 21 54 16 33 -3
67 -13 85 -26 18 -13 32 -17 36 -11 3 6 -7 18 -24 28 -33 18 -40 32 -18 32 8
0 22 9 32 20 17 19 17 20 0 20 -10 0 -26 -7 -36 -16 -9 -8 -42 -18 -73 -21
-52 -5 -56 -4 -56 16 0 11 -4 21 -10 21 -5 0 -10 -22 -10 -50z"/>
</g>
</svg>
